/* XPM */
static char *c170600584a44364ab7eed0e8eae7f68FeHXjRXlPJGlEVEh[] = {
/* columns rows colors chars-per-pixel */
"64 64 155 2 ",
"   c #1F1E2F",
".  c #241523",
"X  c #2C1929",
"o  c #361726",
"O  c #391727",
"+  c #371A27",
"@  c #391A27",
"#  c #301B2B",
"$  c #3C1929",
"%  c #272638",
"&  c #2B2A3D",
"*  c #451C2D",
"=  c #4B1D2E",
"-  c #501E2F",
";  c #471E30",
":  c #4D1E30",
">  c #511F31",
",  c #46202F",
"<  c #4B202E",
"1  c #55202F",
"2  c #5C222F",
"3  c #4E2131",
"4  c #532133",
"5  c #5B2335",
"6  c #5D2837",
"7  c #5E2538",
"8  c #5E2938",
"9  c #65222D",
"0  c #6A242F",
"q  c #642534",
"w  c #6B2633",
"e  c #662B36",
"r  c #6A2936",
"t  c #62263A",
"y  c #672A3E",
"u  c #6C2B3B",
"i  c #752A36",
"p  c #7D2D35",
"a  c #732D3D",
"s  c #7A2E39",
"d  c #6E303C",
"f  c #73313E",
"g  c #7D303D",
"h  c #333247",
"j  c #353549",
"k  c #3B3A50",
"l  c #6C2D41",
"z  c #763040",
"x  c #44425A",
"c  c #5A5772",
"v  c #5B5A74",
"b  c #5E5C78",
"n  c #615F7A",
"m  c #725B74",
"M  c #755F78",
"N  c #62617C",
"B  c #76617B",
"V  c #79647E",
"C  c #8B2E31",
"Z  c #823037",
"A  c #8E3134",
"S  c #83323C",
"D  c #8B373E",
"F  c #933436",
"G  c #933A36",
"H  c #953639",
"J  c #97383B",
"K  c #93393E",
"L  c #94393D",
"P  c #97383D",
"I  c #96393D",
"U  c #943A3D",
"Y  c #943B3D",
"T  c #963A3D",
"R  c #973A3D",
"E  c #973B3D",
"W  c #94393E",
"Q  c #953A3E",
"!  c #953B3E",
"~  c #943B3E",
"^  c #963B3E",
"/  c #973B3E",
"(  c #963B3F",
")  c #96393B",
"_  c #98393B",
"`  c #983A3C",
"'  c #993A3C",
"]  c #993B3C",
"[  c #983B3D",
"{  c #993B3D",
"}  c #9A3B3D",
"|  c #983A3E",
" . c #993A3E",
".. c #983B3E",
"X. c #993B3E",
"o. c #9A3B3E",
"O. c #9C3B3E",
"+. c #993C3E",
"@. c #993C3F",
"#. c #9A3C3E",
"$. c #9A3C3F",
"%. c #9C3C3E",
"&. c #9C3C3F",
"*. c #9B3C3E",
"=. c #9C433E",
"-. c #B7474B",
";. c #B7474B",
":. c #B74E4B",
">. c #7B6B84",
",. c #7E6E87",
"<. c #7D6C85",
"1. c #7E6F88",
"2. c #7E6F88",
"3. c #7F718A",
"4. c #7E718A",
"5. c #80728B",
"6. c #83778F",
"7. c #81748D",
"8. c #837790",
"9. c #837790",
"0. c #837991",
"q. c #847891",
"w. c #847992",
"e. c #847B93",
"r. c #847A92",
"t. c #878097",
"y. c #8A879D",
"u. c #8A869C",
"i. c #8A869C",
"p. c #A68093",
"a. c #AA8E9E",
"s. c #AB959E",
"d. c #AB949F",
"f. c #AC95A3",
"g. c #AD99A6",
"h. c #AF9FAB",
"j. c #AF9CA9",
"k. c #AFA2AE",
"l. c #AFA0AB",
"z. c #B0A3AE",
"x. c #AFA6B2",
"c. c #B1A7B0",
"v. c #B1A6B2",
"b. c #B1A7B3",
"n. c #B2A8B2",
"m. c #B0A9B4",
"M. c #B2ABB5",
"N. c #B2AAB5",
"B. c #B3ABB6",
"V. c #B3ACB7",
"C. c #B2ACB7",
"Z. c #B2AAB5",
"A. c #B3ACB8",
"S. c #B3AEB8",
"D. c #B3AEB8",
/* pixels */
"y.3 4 l y y y y y y l l y l y u l l u y u l y l y y y l l y C.S.S.S.y y y y l y y l y y y y l y y y y y l y y l l l l z z z S.y.",
"4 3 3 @.&.*.&.&.*.*.S S S g S l y y y l y y u l y S S s l z g A.C.l -.-.-.-.y y y y y y y y y y y y y y y $.u z  .l z z y y 5 y.",
"4 O.@.&.&.*.&.*.&.S *.*.S K K ( { $.{ $.O.*.*.{ S z S ( S S z S.y -.&.O.O.O. .O.-.*.&.{ O. .O.@.O.O. .l $.*.( $. .K a y l t : S.",
"3 &.&.&.*.*.*.*.&.&.*.*.$.S {  .$.{ &.{  . .*.*.&.S @.&.@.S S S.y -.O.O.-.O.O.O.&.*. .@.-.(  .(  . . . .&.$.{ z  .( z z l l 4 S.",
"3 @.O. . .*.S  .O.O.&.&.z &.S z g S $.@.{ ] ( ( @.@.(  .g S S S.u *.*.*.O.*.*.*.$.&.*.*. . .@.@. .( z  . .{  .{  . .z z z l y x.",
":  . .@.{ g g S  . .S &.S S S S  .S g $.{ (  .( ( ( ( W g l S S.l &.*.*.O.a  .$.$.$.{ $. . .O.(  . .z @. .z *. .( @.@.@.z y y b.",
"3 ( s g g g g g s s g g S z z S S g g S g {  .( (  .l S g y S A.y  . .a  .z f *.*.s z &.a &.s z a ( z s f s z z a z a a a  .a z.",
": K s g _ s s g g g s S s s y S g g g g g g g g s z y y y y y A.y  .( ( O.z &.s z a &.s z f z a s z a f a z a a a a a a i l a h.",
"; s s s s s t s s y s s s y t y t s s g  .g g y g S y t t y y M.y  .a O.a a O.a s a a s a a s z y y y l a a a l a s i a a u i w.",
"; s i s s s 7 7 t t t s s s s t s t s s t t t g t t t t t t y N.y D a s a l a a a a a a  .a a t t t a t i a i u w u F u r r u w.",
"; 5 s s i s s s t t t t s s s i t t t 7 t t t t t t t 3 t t y n.u D u t i t a u i a a u i u 7 7 7 7 7 7 5 7 7 5 5 u q 5 q w $ q.",
"; 5 i 5 5 i 5 7 5 5 5 5 5 i t 7 7 7 7 7 t q 7 7 t t t : ; t ; n.t i u 7 7 7 u 7 7 5 u w y t 7 7 7 > 5 4 ; > > 5 5 4 q > q > >.8.",
"; 5 5 7 i i 5 5 5 5 5 5 i 5 5 7 ; * ; 5 5 7 5 7 5 7 5 7 5 ; ; n.5 w u 5 r 5 5 5 > 5 7 y w > 4 5 > > * $ > $ * > > > > 4 > > > q.",
"$ 5 5 i 5 5 5 5 5 5 ; * * * * * * ; $ ; * 5 5 5 5 q 7 7 5 3 3 N.t t q q > q 5 > > > > 4 > > > $ > * $ O : O O : : : : : - - * q.",
"f.2.5 5 5 ; ; ; ; ; ; ; ; ; ; 4.h h j j ; 3 3 # X 3 ; ; = * 5.v 2.t t 5 7 5 5 > > 5 > > 5 4 5 4 * X X ; ; ; X ; 5 4 5 4 4 * = >.",
"y.y.y.y.i.i.S.S.S.m.m.S.S.S.S.y.y.y.y.y.y.y.y.S.S.S.y.y.u.u.N N N y.S.S.N.C.y.y.y.y.y.S.A.A.D.D.S.C.C.C.A.C.S.A.A.A.S.M.& & y.y.",
"y y y y y 4 & k y.y y y y y y y y y u y y y y y u y y y y O.%.%.y y l s y y l y.y y &.*.y y y l @.O.O.*.y y y y y u y y &.&.y y ",
"O. .*.y y y l & y.y y -.-.-.&.&.O.O.%.%.O.O.O.O.%.%.O.&.&.O.%.%.O.&.@.z O.a y y.y &.*.*.O.O.y *.O.O.*.&.&.&.y &.*.O.&.-.&.&.&.&.",
"O.*.*.*.O.y y y y.y *.*.O.-.O.&.&.&.%.%.*.*.O.*.&.;.&.&.&.%.%.%.O.O.&.-.O.s l y.y &.*.-.O.O.y *.&.&.*.*.*.*.*.*.*.*.&.-.-.%.&.%.",
" . .*.*.O.O.y y y.y *.;.-.O.&.&.-.-.%.%.f g *.*.&.&.&.&.&.%.%.%.*.O.&.&.-.@.s N y &.*.-.-.*.&.*.*.S *.&.*.*.*.*.&.*.*.&.%.%.%.%.",
"O.S g s  . .y y V.y _ { O.f *.*.&.&.O.f g &.&.$.*.z f z z s z z z z &.&.*.f u N y O.O.O.*.*.-.*.*.&.*.S S &.*.*.*.*.*.{ O.O.O._ ",
"S g g S S  . .t N. .{ *.f f { { O.s f f f s f f f s s z z f f s f s z g g f z N u &.&.*.O.O.*.*.*.*. . .( S  .J  .{ { _ O.O.] ] ",
"s s s S S S _ t N. . ._ O.O._ _ O.s f s s f s z f f u f g f a f f a f f f f s n y O.O. . .O. . .S S g S g S ( ( ( J L L ( J _ S ",
"s s s s s s  .t n._ _ H s H a J a a a a a s a a a s a a a s s y s s _ O.J J a b y _ _ g s S s s g g s g g s D K s g g J H s g s ",
"s s s s s s i 7 v.t J H i H i H i a u q t a q a q t q t t t t t a i f J u i t v y H s s s s s s s s s s s s s p s s p s p s 7 i ",
"s > s s i i i 7 v.> w H F u r G r r w 5 w w w 7 r 7 t 5 w 5 q 5 r u r A u w 6 v s i i i i s s i i i F i i i i i i i i i i s 5 i ",
"i i i i i i > > h.5 w w w w r w w w 5 5 5 w 5 5 5 5 5 5 5 5 5 5 r w w w w w 4 0.u i i i i > i i i i i i i > i i i i 5 i i i 5 > ",
"= i 0 0 i s > > e.w > > > 4 4 > 4 4 4 q 5 - - q > 4 > > 4 > 4 4 > 4 q q 3 3 4 6.5 > > > > > > > > > > i > > 0 w w 0 0 4 > > 5 > ",
"= 0 w w 9 w : = % q > > > O $ O 1 = - = - - - - - - > 9 5 2 = : = = = 5 = = < 6.5 : : : - = : : : = = = : = > - = - - w w 0 = = ",
"= 9 9 9 9 9 : > % X = o o = o = = = o = = = - - = = * * * = * * = = * * = o o 4.> * * * * * * o = o o = * * * * * * 9 * 9 * * * ",
"> i i i > > > r.v     # . . = = O O < : : : : : : 4 4 4 4 4 5 5 5 5 5 5 5 ; f.t.e.t t y y : : 3 5 * O * O : > > > : : * * : = * ",
"b.y.y.y.y.y.>.v N N y.y.y.y.y.V.M.n.N.N.N.N.b.x.b.Z.C.N.M.M.S.S.S.S.S.S.S.S.S.y.y.y.S.S.S.S.n S.S.S.A.A.S.S.S.S.S.Z.S.S.S.S.A.Z.",
"y y y u y y y y y y y y y y l l y y y l l D y S.S.4 6 e d d l 8 y y y y y l l 8 l l 8 d d y y x d d e d d k N y.y.e l y y y y y ",
"*.*.*.%.;.;.;.;.-.O.&.O.O. . .O. .y y D D D y y S.3 e d y 8 l l =.=.d y d 8 =.l =.=.:.:.=.=.=.=.=.=.=.y d 3 k y.y y *.&.y { *.O.",
"*.&.%.%.&.&.&.%.O.O.O.O.O.O.O.O.O.O. .y D D y y S.l x =.=.=.=.=.=.=.=.=.d =.=.=.:.=.=.:.:.=.=.=.=.=.=.=.=.=.6 y.y =.t { *.&.-.-.",
"&.&.%.%.%.%.&.&.*.O.O.O.O.O.O.O.O.y @.y y D D y S.d =.d =.=.=.=.=.=.=.=.=.=.=.=.=.=.=.:.=.:.=.=.f z d d =.=.3 y.y l @.$.*.*.-.-.",
"&.&.%.%.&.&.&.&.&.*.&.*.K D D O.O.y O.*.$.{ l y S.y =.=.=.=.=.=.=.=.=.:.=.=.=.=.=.=.:.=.=.:.=.=.=.=.f d f =.d y.y *.*.*.&.-.*.*.",
"&.D %.%.&.&.&.D *.*.D D D D D O.O.O.*.*.@.@.D y S.y =.d =.=.f f =.=.=.=.=.=.=.=.=.=.=.=.=.=.=.=.=.f f d d l x y.y *.*.*.-.{ *.D ",
"D ] %.D &.D D D D D D D D D D P *.&.&.*.=.=.D 8 k l =.=.f f z =.=.=.=.=.=.=.d d =.d f z f f =.=.=.f d z 8 y 8 y.y O.{ { -._  .{ ",
"D D K %.D &.D D D z D D D D D D D D D D D =.D & h d =.f =.=.=.d f d d =.=.f f f f f d f f f d f f =.=.d f y y y.y _ ] _ _ H D D ",
"a D D D D D D a D D a a a D D D D D D D D D D k N f =.=.f d f z f f =.f =.d f f d f d d d d d d d d d d d 8 t i.t _ H K u u u Z ",
"u a D D D D a a z D l D D D z D D D D D D D D l N d f =.=.f f d d f d f d d d d d d e d e 6 d d d =.e d d d e m.t t H A r H u H ",
"u u a u S a l a l a a y z z D a z a D D D D D y n d d f d d d d d d d d d d d d d d 8 d 6 d d d e d d =.d e t m.5 7 H y r t r w ",
"r u u u u u a a t y y l y u u D a D u u S D S y b e d f d d d d x d d d e e =.e 6 6 d 8 6 6 6 6 e e e e e 6 8 c.5 F F q q 5 q q ",
"q q w r w y H w y t t l t a u u i Z u u u y C t c 6 6 e d e G e i e e e e e =.2 6 e e 6 4 e 6 e e e e e e 5 , k.a.F > q > 7 q q ",
"q q t q q t q q > ; * > > t > 7 t u > y q t 5 * ,.6 6 4 4 4 6 6 6 6 6 6 3 6 6 6 6 3 6 4 , 3 3 e 4 4 4 3 4 * $ e.> A > > > > > q ",
"- > 9 - 9 > > > O $ * > > > > > > > > > > > $ > B @ $ 4 4 4 5 1 < 1 < 3 3 1 3 3 < < < < @ @ < 1 1 3 3 3 $ . B e.- > > : O > 2 2 ",
"* - - * * = - x x x x . . X O O O * $ $ $ O $ m B B @ @ @ @ O $ @ @ @ @ @ @ + + + B m m m m @ < < < < < . . M 0.M > : O O = = > ",
"z.h.z.h.z.0.0.0.8.4.,.<.5.5.6.6.e.k.j.k.h.h.j.8.j.j.j.z.z.z.Z.A.N.N.Z.Z.n.b.N.N.C.t.e.e.e.q.0.0.v c.n M.Z.u.t.y.t.t.t.N.t.x.n.n.",
"u y y y y l 4 4 l &.*.*.O.O.O.y D.3 : l l l y y y y y y y y y u l l y y y l y y l y l l y y l N N N & 3 y y y y l u y y l y y y ",
"D D D D D D y &. .*.*.&.*.*.*.y A.: : l W y O.O.*.*.O.O.&.&.*.y  .{ &.*. .*.O.*. .a y a a a y n N & 3 y y y y y O.O.O.O.O.*.y D ",
"D K D D &.D *.D  .*.*.*.-.*.O.y A.: l |  . .O.O.*.*.*.*.&.&.*.*.*.*.*.*.*.*.O.O.O. .O.O.a l a N N y y =.*.*.*.*.O.O. .D  . . . .",
"&.&.&.*.D *.*.*.*.*.D *.*.&.&.y A.> l W O.P z -.*.*.a &.*.&.O.*.*.*.*.&.*.*.z &.a O.*.*.O.O.a n S.y *.*.*.*.;.] D ] E ( _ _ _ _ ",
"&.&.&.D &.D &.&.*.D *.D *.&.&.y e.l l l O.P z O.*.a *.*.&.&.O.O.&.*.&.*.&.a a a l O.*.*.O.O.a y.i.y { { O.*. .D _ J D A D J Z J ",
"O.O.*.D *.D D D &.D *.D D D &.u.y.l l u z P a P a z a a a a z a a a a a a &.a $.a *.&.&.O.O.y y i.y ( _ _ _ _ _ D D Z D Z D Z _ ",
"O.O.*.D D D z a f D D D K D &.y e.l t P z a z O.&.a *.l a a a l a l a z a *.l a a a O.a  ._  .y t.t _ _ _ D J Z Z Z D Z Z F F Z ",
" .a D S a l D D a D D D D D D y >.> t z l i z u a z z z a a a a a a a u a a  . ._ i u u i W _ t q.t H H H H Z Z Z r r Z F p F F ",
"i u a a S u i u u a D D Z D D t n t l l u u u l u t u t u u u l u u u i u u u u u y y u y H F 5 7.5 r r w Z y t p q p Z q A A F ",
"y u a u u u u u S S A u Z S Z t c t u l u l w t t t t t t H l u u y 5 y 7 u w t q w q w q F A * <.> q q p q q 9 q 5 9 5 q 5 5 9 ",
"u > q u q w r r Z Z Z Z Z Z 5 7 5.= q w w w t t w > > 7 t > > l 5 5 q 5 q q > q q t q q q C > * >.> q > 9 > > 9 2 5 5 2 - 2 2 5 ",
"> > w w F q q r q q p Z 7 5 5 5 >.* > t t 7 > 7 > t > 7 > > > > > > > > > > q 2 > 2 2 > > > : : M > $ > : > > - C > > : = : : : ",
"= > > > 5 > > q p Z > > p > > > >.* * > > > > > > > > > $ > > > > > > : > : > > > : > : : O O x m O = = = = - - - = - : = O O O ",
"* $ ; * $ $ $ * . . . * $ $ * M >.M $ $ > > > > : : > * : : : : > : $ . O $ - = : * * o o o O x x O O O $ $ $ $ $ $ $ O o o o o ",
"k.k.j.j.g.d.d.d.d.f.d.d.d.f.f.f.f.g.f.g.j.j.j.j.j.j.g.g.j.j.g.g.g.g.g.g.g.h.g.g.g.a.a.a.a.a.a.f.g.g.f.f.f.f.f.f.f.a.f.g.g.g.f.f."
};
