/* XPM */
static char *_23b56178581489980b2ce0b0da7f6f43ulU2jy8hr5CfiKU[] = {
/* columns rows colors chars-per-pixel */
"64 64 6 1 ",
"  c #3F6D5C",
". c #3B8268",
"X c #315041",
"o c #345648",
"O c #386251",
"+ c #273E36",
/* pixels */
"  ........... XX        ......XX  .......... oXX .........  OoXX",
"             OXX             OXX        OOO  oXX.       OO OOoXX",
".       OO  OoXX.    O      OoXX.    OOOO    oXX.        OOOOoXX",
".     OOO  OOooX.  OO OOOO  OoXX.   OOO   O OooX.     OOOOOOOoXX",
".      OOOOOOoo+. OO     OOOOooX.     OOOOOO OoX.   OOO  OOOOOXX",
".  O  OOOOOOOoo+.  OOOO    OOoXX.       OOOOOOoX.    OOOO  OOOXX",
".   O OO OOOOoX+.   OOOOOO  OOXX OO  OOO   OOOo+.         OOOoX+",
".   OOOOO  OOoX+. OO    OOO OOoXO OO  OOO   OOX+.  O  OO   OOoX+",
".    OO   OOOOX+.     OO  OOOOo+OO   OO   OOOOXX   OOO   OO OOX+",
". O OO   OOOOOX+    OO OOOOOOoX+O   OO  OOOOOoXX  OOO  OOO  OOX+",
"  OOoOOO  OoOoX+  OOOOOOOOoOOoX+  OO  OOOOOoOoX+  OO O  OOOOOOo+",
"   OOooOOOoooooX   OOooOOOOooOX+OO OO  OoOOOooX+. oOOOOOOOOOOoX+",
" OOOooooOOOooXoXOOOOOOoooOOOooX+OOOOOOooOOoooXX+ OooOooOOooXooX+",
"OOooooOOooooXXXXooOOooooOOooooX+ooooOooOooooXXX+OoooooOOooXXXXX+",
"XXXXXooXXXoooXXXXooXXoooooXXXXXXXXoooXXXXXoooX+XoooXooooXoooXXXX",
"XXXXXX++++++++XXXXXXXXXXXXXXXXXXXX++++++++++++XXXX++XX++++++XXXX",
"    ........  XX  ....  .    OXX....     .    XX..........  . XX",
"        OO  OOXX      OO   O  oX.     OO     OoX.            OXX",
". O  OO   OOOOoX.  OOO    OO ooX.  OOO  OO OOooX.   OOO   OO oXX",
". OOO      OOoXX.OOO  OO OOOOooX. OOO    OOO ooX.     OOOOO OoX+",
".OOO   OOOO OooX. OOO  OOOOOOoX+       O    OooXOO  OO OOO OOoX+",
".O OOO  OOOOOooX   OOOOOOOO OoX+      OO   OOoXXOOOO OOOOOO Ooo+",
".   OOOO OOOOOoXO    OOOOO  OoX+    OOO  OOOOOoX. O   OOO   OOoX",
".  OOOO   OOoOXX O  OO OOO   oX+  OOOOOO  OOOOoX    OO     O OXX",
"  O     OOOOOoX+ OOO  OOO OO Oo+   O  O OOOOooo+O  OOOO OOO  OoX",
" OOO  OO  OOOoX+     OOOOOOOOOo+ OO  OOOOOooOoX+OO    OOOO  OOoX",
"OO  OOOOO  OOoo+  O   OOOOOOOoo+.  OOOOOooOoooX+  OOO  O   OOOoX",
"OOO  OoOOooOooo+OO  OO OOOOoooX+.OO OOoooOOOooX+O  OOOO  OOOOoo+",
"OOOOooOOOOooooo+OOOOOOOOOOooOoo+  OOoooOOooooXX+OOO   OOO OOOoX+",
"OOOooOOoooooooX+OOooooOOooOOooX+ OOOOooooXXoXXX+ooooooOOOoooooXX",
"XooXXXoooXXXooXXXooXXoooXXXooXXXXoooooXXXXoooXXXXXXXooooXXXXXX+X",
"XX++XX++++++++XXXXXX++++++XXXXXXXXXXXX++++++++XXXXXXXX++++++++XX",
"  ..........OOXX .....  .... OXXOO ...  ....  XX  ......   .  XX",
"             OoX.     OO    OOXX OOO     O  OOoX        OO   oXX",
".   OO      OoXX.  OO  OOO  OoXX.  OOO    OOOooX.  O  O  OO OooX",
".    OOO  OOOoXX. OO  OOO  OOooX. OOO   OOOOoooX. O  OOOOO  OOoX",
".     O  OOOOooX. O OOO  OOOOOoX.    OO  OOOoOo+.OO O  OO  OOoX+",
".  OOOOO   OOooX.OOOOO  OO   OXX. OO  OOO OoOOo+. OO OO OO OOoX+",
"O   OO  OOO OOo+ O OOOO     OoX+.  OO  OOOOOOOX+. OOOO     O OX+",
" OOO   OO  OOOo+   O  OO   OOoX+.    OOOOO OOOX+. O  OOOO    Oo+",
" OO   OOOO   OX+.    O   OOOooX+.  O  OOO  OOoXX.  OO  OOO O Oo+",
" OOOO   O   OOo+    OOOOO OOooX+. OOO   O OoOoXX. OO  OoOOO  Oo+",
" OooOOOO   OOOo+  OOOOO  OOoooo+  OO O   OOOoooX OO OOOOooO Ooo+",
" OOoooOOO OOOoo+ OOOoO  OOOOooo+ OooOOOooOOOoOoX  OOOooooOOoOoX+",
"OOOOooooOOooOoo+OoooOOOOOOoooXo+ OOOooOOOooOOOoXOOOOOOooOOOoooX+",
"OOoooooOOOOoooX+ooOOOOooOOOoXXX+OOoOooooOOooOoXXOOooOOOooOooooo+",
"XoooXXXXXooXXXXXXXXooooXXooooXXXXXXooXXXXoooooXXXXXXoooXXXXoooXX",
"XXXX++++XX+XXXXXXXXXXX++++++++XXXXXX++++++XXXXXXXXXXXX++++++++XX",
"OO......  ....XX  ..........OoXX ...........  XX  ..........  XX",
"O             XX     OO    OOoXX.            OoX              XX",
". OO    OO   OoX.  OO    OOOOOX+. O   OO    OooX.   OO  OO OO X+",
".  OO    OOO OoX.   OO OO OOoOo+. OO   OOO   oXX.    OOO    OOo+",
".    OO   OOO oX.     OOOOOOooo+.O OO OO  OO oXX.   OOO   OOOoo+",
".      OOO  OOXX.  OO  OOOOOOoo+.  O O   OOOOoXX. OO  OOO  OOOo+",
".  O OOO   O OX+  OO OOO  OOOoX+     OO    OOOXX   OO  OOOO OoX+",
". OOOO    OO  o+    OO  O  OOoX+    OOOO  OOOOoX     OOOO  OOoX+",
"  oOO OOO   O o+         OO  OX+ O  OO  OO  Ooo+.  OOOO  OO ooX+",
" OoOoOOooOO Ooo+.OO   OOOO  OOo+OO OOOOOO  OOoo+ O   OOO  OOoXX+",
"  OooOOOooOoooX+  OO   OOOOOoOo+O OOOOO  OOOooX+O     OOOOooXXXX",
"O OoOOooOOOOooX+OO   OOOooOOooo+  OOooOO  OOooX+O O OO  ooooooXX",
"OOoOoooooOooXXX+oOO OOoooOOoooo+ OoooOOoOooXXoX+OOOooo OOoXXoXXX",
"OooOOooOOooooXX+ooOOOOOoooooooX+OOOooooOOOooXXX+OOoooOOooooXXXXX",
"XXXoooXoooXXXXXXXXXoooXXXXooXXXXXXoooXXXXooooXXXooXoooooXXXXXXXX",
"XXXX++++++++XXXX++XX++++++++++XXXXXXXX++++++++XXXXXXXX++++++++XX"
};
