/* XPM */
static char *result[] = {
/* columns rows colors chars-per-pixel */
"64 64 9 1 ",
"  c #292820",
". c #412818",
"X c #483526",
"o c #5A3420",
"O c #5A3C29",
"+ c #5D4130",
"@ c #6C4A35",
"# c #7B5039",
"$ c #945D41",
/* pixels */
"                                                                ",
" XXXXXXX++++@@@@+++++++++++++++++++@@@@@@@@@@@@@@+++++@@@+XXXXX ",
" X############$$$###############$$$$$$$$$$$$$$####$$$$$$$$$$##X ",
" X#############$$$############$$$$$$$$$$$$$##########$$$$$$###X ",
" X##$o.o$.$o.o$.$o.o$.$o.o#.#o.o$.$o.o#.$o.o$.$o.o#.#o.o#.#o##+ ",
" X##.$o$...$o$...$o$...$o$...#o$...$o#...$o$...$o$...#o#...###+ ",
" +##.o$o...o$o...o$o...o$o...o$o...o#o...o$o...o$o...o#o...o##+ ",
" +##o$.$o.o$.$o.o$.$o.o$.$o.o$.$o.o#.$o.o$.$o.o$.$o.o#.$o.o###+ ",
" +##$...$o$...$o$...$o$...#o$...$o#...$o$...$o$...$o#...$o#.$#+ ",
" +##o...o$o...o$o...o$o...o#o...o#o...o$o...o$o...o#o...o#o.$$+ ",
" +#$#o.o$.$o.o$.$o.o$.$o.o#.#o.o#.$o.o$.$o.o$.$o.o#.#o.o#.#o$$+ ",
" +#$.#o$...$o$...$o$...$o$...#o#...$o$...$o$...$o#...#o$...#$$@ ",
" +#$.o#o...o$o...o$o...o$o...o#o...o$o...o$o...o#o...o$o...o$$@ ",
" +$$o$.#o.o$.$o.o#.$o.o$.$o.o#.$o.o$.$o.o#.$o.o#.$o.o$.#o.o$$$@ ",
" @$$$...#o$...$o#...$o$...$o#...$o$...$o#...$o#...$o$...$o$.$$@ ",
" @$$o...o#o...o$o...o$o...o#o...o$o...o#o...o#o...o$o...o$o.#$@ ",
" @$$$o.o$.#o.o#.$o.o$.$o.o#.$o.o$.$o.o$.$o.o#.$o.o$.$o.o$.$o##@ ",
" @#$.$o$...#o#...$o#...$o$...$o$...#o#...$o#...$o$...$o$...$##@ ",
" @##.o$o...o#o...o$o...o$o...o$o...o#o...o#o...o$o...o$o...o##@ ",
" +##o$.$o.o#.#o.o#.$o.o#.$o.o$.$o.o#.#o.o$.#o.o$.$o.o$.$o.o$##+ ",
" +##$...$o$...#o#...$o#...#o#...$o$...#o$...#o$...$o$...$o$.##+ ",
" +##o...o$o...o#o...o$o...o#o...o$o...o#o...o$o...o$o...o$o.##+ ",
" +$##o.o#.$o.o#.#o.o#.$o.o$.#o.o#.$o.o$.$o.o$.$o.o$.$o.o$.$o##X ",
" @$#.#o#...$o#...#o#...$o$...#o#...$o$...#o$...$o$...$o#...$##X ",
" @$$.o#o...o$o...o#o...o$o...o#o...o$o...o$o...o$o...o$o...oO#X ",
" @$$o#.#o.o#.#o.o#.#o.o$.$o.o#.#o.o$.$o.o$.$o.o$.$o.o#.$o.o#O#X ",
" @$$#...#o#...#o#...#o$...$o#...#o$...$o$...$o$...$o#...$o#.OOX ",
" @$$o...o#o...o#o...o#o...o$o...o#o...o$o...o$o...o#o...o#o.OOX ",
" @#$#o.o#.#o.o#.#o.o#.#o.o#.$o.o#.#o.o#.$o.o#.#o.o#.#o.o#.#oOOX ",
" +#$.#o#...#o#...#o#...#o#...$o#...#o#...$o#...#o#...#o#...#OOX ",
" +##.o$o...o#o...o$o...o#o...o$o...o#o...o$o...o#o...o$o...oOOX ",
" +##o$.$o.o#.$o.o$.$o.o#.#o.o#.$o.o#.$o.o$.$o.o#.$o.o$.$o.o$O$X ",
" +##$...$o#...$o$...$o#...#o#...$o#...$o$...$o#...#o$...#o$.O$X ",
" +##o...o$o...o$o...o$o...o#o...o$o...o$o...o$o...o#o...o$o.O$@ ",
" X##$o.o$.$o.o$.$o.o$.$o.o#.#o.o$.$o.o$.$o.o$.$o.o#.#o.o$.#o$$@ ",
" XO#.$o$...$o$...$o$...$o$...#o$...$o$...$o$...$o#...#o$...#$$@ ",
" XOO.o$o...o$o...o$o...o$o...o$o...o$o...o$o...o$o...o$o...o$$@ ",
" XOOo$.$o.o$.$o.o$.$o.o$.$o.o#.$o.o$.$o.o$.$o.o#.$o.o$.$o.o#$$@ ",
" XO#$...$o$...$o$...$o$...$o#...$o$...$o$...$o#...$o$...$o#.$$@ ",
" XO#o...o$o...o$o...o$o...o$o...o$o...o$o...o$o...o$o...o#o.$$+ ",
" +##$o.o$.$o.o$.$o.o$.$o.o#.$o.o$.$o.o$.#o.o#.$o.o$.$o.o#.$o#$+ ",
" +#$.$o$...$o$...$o#...$o#...$o$...$o$...#o#...$o$...$o$...$##X ",
" +$$.o$o...o$o...o$o...o$o...o$o...o$o...o#o...o$o...o$o...oO#X ",
" +$$o$.$o.o$.$o.o$.$o.o#.$o.o$.$o.o$.#o.o#.#o.o$.$o.o$.$o.o$OOX ",
" @$$$...$o$...$o$...$o#...$o$...$o$...#o#...#o$...#o$...#o$.OOX ",
" @$$o...o$o...o$o...o$o...o$o...o$o...o#o...o#o...o$o...o$o.OOX ",
" @#$$o.o$.$o.o$.$o.o#.$o.o$.#o.o#.$o.o#.#o.o#.#o.o$.#o.o$.#oOO+ ",
" @##.$o$...$o$...#o#...$o$...#o#...$o#...#o#...#o$...#o#...#OO+ ",
" +##.o$o...o$o...o#o...o$o...o#o...o$o...o#o...o#o...o#o...oO#+ ",
" +##o$.$o.o$.#o.o#.$o.o$.$o.o#.$o.o#.$o.o#.#o.o$.#o.o#.#o.o###+ ",
" +##$...$o$...#o#...$o$...$o#...#o#...$o#...#o$...#o#...#o#.##+ ",
" +O#o...o$o...o#o...o#o...o$o...o#o...o#o...o$o...o#o...o#o.##+ ",
" +OO$o.o$.#o.o#.#o.o#.#o.o#.$o.o#.#o.o#.#o.o$.#o.o#.#o.o#.#o##+ ",
" XOO.$o$...#o#...#o#...#o#...$o#...#o#...#o$...#o#...#o#...###+ ",
" XOO.o$o...o$o...o#o...o#o...o$o...o#o...o$o...o#o...o#o...o##+ ",
" XOOo$.$o.o$.$o.o#.#o.o#.#o.o#.$o.o#.#o.o$.#o.o#.#o.o#.#o.o#O#+ ",
" XOO$...$o$...$o#...#o#...$o#...#o#...$o#...#o$...#o#...#o#.OO+ ",
" XOOo...o$o...o$o...o#o...o$o...o#o...o#o...o$o...o#o...o#o.OO+ ",
" XOO$o.o$.#o.o$.$o.o#.#o.o#.$o.o#.#o.o#.#o.o$.#o.o#.#o.o#.#oOO+ ",
" XOO.$o$...#o$...$o#...#o#...$o#...#o#...#o$...#o#...#o#...#OOX ",
" XOOOOOOOOOOOOOOOOOOOOOOOOOOOOOOOOOOOOOOOOOOOOOOOOOOOOOOOOOOOOX ",
" XOOOOOOOOOOOOOOOOOOOOOOOOOOOOOOOOOOOOOOOOOOOOOOOOOOOOOOOOOOOOX ",
" XXXXXXXXXXXXXXXXXXXXXXXXXXXXXXXXXXXXXXXXXXXXXXXXXXXXXXXXXXXXXX ",
"                                                                "
};
